 <svg viewBox="0 0 660 230" fill="none" xmlns="http://www.w3.org/2000/svg">
    <circle cx="7.5" cy="7.5" r="7.5" fill="#C4C4C4"/>
    <circle cx="7.5" cy="136.5" r="7.5" fill="#C4C4C4"/>
    <circle cx="7.5" cy="93.5" r="7.5" fill="#C4C4C4"/>
    <circle cx="179.5" cy="7.5" r="7.5" fill="#C4C4C4"/>
    <circle cx="179.5" cy="136.5" r="7.5" fill="#C4C4C4"/>
    <circle cx="179.5" cy="179.5" r="7.5" fill="#C4C4C4"/>
    <circle cx="179.5" cy="93.5" r="7.5" fill="#C4C4C4"/>
    <circle cx="351.5" cy="136.5" r="7.5" fill="#C4C4C4"/>
    <circle cx="351.5" cy="50.5" r="7.5" fill="#C4C4C4"/>
    <circle cx="351.5" cy="179.5" r="7.5" fill="#C4C4C4"/>
    <circle cx="351.5" cy="222.5" r="7.5" fill="#C4C4C4"/>
    <circle cx="523.5" cy="7.5" r="7.5" fill="#C4C4C4"/>
    <circle cx="523.5" cy="136.5" r="7.5" fill="#C4C4C4"/>
    <circle cx="523.5" cy="50.5" r="7.5" fill="#C4C4C4"/>
    <circle cx="523.5" cy="179.5" r="7.5" fill="#C4C4C4"/>
    <circle cx="523.5" cy="93.5" r="7.5" fill="#C4C4C4"/>
    <circle cx="50.5" cy="7.5" r="7.5" fill="#C4C4C4"/>
    <circle cx="50.5" cy="136.5" r="7.5" fill="#C4C4C4"/>
    <circle cx="50.5" cy="93.5" r="7.5" fill="#C4C4C4"/>
    <circle cx="222.5" cy="7.5" r="7.5" fill="#C4C4C4"/>
    <circle cx="222.5" cy="50.5" r="7.5" fill="#C4C4C4"/>
    <circle cx="222.5" cy="179.5" r="7.5" fill="#C4C4C4"/>
    <circle cx="222.5" cy="93.5" r="7.5" fill="#C4C4C4"/>
    <circle cx="394.5" cy="7.5" r="7.5" fill="#C4C4C4"/>
    <circle cx="394.5" cy="136.5" r="7.5" fill="#C4C4C4"/>
    <circle cx="394.5" cy="50.5" r="7.5" fill="#C4C4C4"/>
    <circle cx="394.5" cy="179.5" r="7.5" fill="#C4C4C4"/>
    <circle cx="394.5" cy="222.5" r="7.5" fill="#C4C4C4"/>
    <circle cx="566.5" cy="7.5" r="7.5" fill="#C4C4C4"/>
    <circle cx="566.5" cy="136.5" r="7.5" fill="#C4C4C4"/>
    <circle cx="566.5" cy="50.5" r="7.5" fill="#C4C4C4"/>
    <circle cx="566.5" cy="179.5" r="7.5" fill="#C4C4C4"/>
    <circle cx="566.5" cy="93.5" r="7.5" fill="#C4C4C4"/>
    <circle cx="566.5" cy="222.5" r="7.5" fill="#C4C4C4"/>
    <circle cx="136.5" cy="7.5" r="7.5" fill="#C4C4C4"/>
    <circle cx="136.5" cy="136.5" r="7.5" fill="#C4C4C4"/>
    <circle cx="136.5" cy="179.5" r="7.5" fill="#C4C4C4"/>
    <circle cx="93.5" cy="93.5" r="7.5" fill="#C4C4C4"/>
    <circle cx="308.5" cy="7.5" r="7.5" fill="#C4C4C4"/>
    <circle cx="308.5" cy="136.5" r="7.5" fill="#C4C4C4"/>
    <circle cx="308.5" cy="50.5" r="7.5" fill="#C4C4C4"/>
    <circle cx="308.5" cy="179.5" r="7.5" fill="#C4C4C4"/>
    <circle cx="265.5" cy="93.5" r="7.5" fill="#C4C4C4"/>
    <circle cx="480.5" cy="136.5" r="7.5" fill="#C4C4C4"/>
    <circle cx="480.5" cy="50.5" r="7.5" fill="#C4C4C4"/>
    <circle cx="652.5" cy="7.5" r="7.5" fill="#C4C4C4"/>
    <circle cx="609.5" cy="50.5" r="7.5" fill="#C4C4C4"/>
    <circle cx="609.5" cy="93.5" r="7.5" fill="#C4C4C4"/>
    <circle cx="609.5" cy="222.5" r="7.5" fill="#C4C4C4"/>
    <circle cx="93.5" cy="7.5" r="7.5" fill="#C4C4C4"/>
    <circle cx="93.5" cy="136.5" r="7.5" fill="#C4C4C4"/>
    <circle cx="93.5" cy="179.5" r="7.5" fill="#C4C4C4"/>
    <circle cx="136.5" cy="93.5" r="7.5" fill="#C4C4C4"/>
    <circle cx="265.5" cy="7.5" r="7.5" fill="#C4C4C4"/>
    <circle cx="265.5" cy="136.5" r="7.5" fill="#C4C4C4"/>
    <circle cx="265.5" cy="50.5" r="7.5" fill="#C4C4C4"/>
    <circle cx="265.5" cy="179.5" r="7.5" fill="#C4C4C4"/>
    <circle cx="308.5" cy="93.5" r="7.5" fill="#C4C4C4"/>
    <circle cx="437.5" cy="7.5" r="7.5" fill="#C4C4C4"/>
    <circle cx="437.5" cy="136.5" r="7.5" fill="#C4C4C4"/>
    <circle cx="437.5" cy="50.5" r="7.5" fill="#C4C4C4"/>
    <circle cx="652.5" cy="50.5" r="7.5" fill="#C4C4C4"/>
    <circle cx="652.5" cy="93.5" r="7.5" fill="#C4C4C4"/>
    <circle cx="652.5" cy="222.5" r="7.5" fill="#C4C4C4"/>
</svg>
