<svg width="54" height="54" viewBox="0 0 54 54" fill="none" xmlns="http://www.w3.org/2000/svg">
    <path d="M11.812 16.0312C11.812 12.6746 13.1454 9.45544 15.5189 7.08193C17.8924 4.70842 21.1116 3.375 24.4682 3.375C27.8249 3.375 31.044 4.70842 33.4175 7.08193C35.791 9.45544 37.1245 12.6746 37.1245 16.0312C37.1245 16.4788 36.9467 16.908 36.6302 17.2245C36.3137 17.541 35.8845 17.7188 35.437 17.7188C34.9894 17.7188 34.5602 17.541 34.2437 17.2245C33.9273 16.908 33.7495 16.4788 33.7495 16.0312C33.7495 13.5697 32.7716 11.209 31.0311 9.46842C29.2905 7.72784 26.9298 6.75 24.4682 6.75C22.0067 6.75 19.646 7.72784 17.9054 9.46842C16.1648 11.209 15.187 13.5697 15.187 16.0312C15.187 16.4788 15.0092 16.908 14.6927 17.2245C14.3762 17.541 13.947 17.7188 13.4995 17.7188C13.0519 17.7188 12.6227 17.541 12.3062 17.2245C11.9898 16.908 11.812 16.4788 11.812 16.0312ZM41.3432 25.3125C40.3588 25.3114 39.3899 25.5573 38.5251 26.0276C38.2667 25.2279 37.8406 24.4926 37.2753 23.8708C36.71 23.2489 36.0185 22.7549 35.247 22.4216C34.4755 22.0884 33.6418 21.9236 32.8015 21.9384C31.9613 21.9531 31.1338 22.147 30.3745 22.507V16.0312C30.3745 14.4648 29.7522 12.9625 28.6446 11.8549C27.5369 10.7473 26.0347 10.125 24.4682 10.125C22.9018 10.125 21.3995 10.7473 20.2919 11.8549C19.1842 12.9625 18.562 14.4648 18.562 16.0312V32.9062L17.7562 31.6132C16.9682 30.2591 15.6746 29.2734 14.1599 28.8731C12.6452 28.4728 11.0335 28.6905 9.67939 29.4785C8.32526 30.2665 7.33962 31.5601 6.93929 33.0748C6.53895 34.5895 6.75673 36.2012 7.5447 37.5553L13.7294 48.1022C13.8331 48.3076 13.9778 48.4896 14.1544 48.6371C14.3311 48.7845 14.5361 48.8943 14.7567 48.9596C14.9774 49.025 15.209 49.0445 15.4375 49.0169C15.666 48.9894 15.8864 48.9155 16.0852 48.7996C16.2841 48.6838 16.4571 48.5285 16.5937 48.3433C16.7303 48.1581 16.8276 47.947 16.8796 47.7228C16.9316 47.4986 16.9372 47.2662 16.896 47.0398C16.8549 46.8134 16.7679 46.5978 16.6403 46.4062L10.462 35.8594C10.2885 35.5713 10.1742 35.2515 10.1257 34.9187C10.0772 34.5859 10.0955 34.2468 10.1796 33.9212C10.2636 33.5956 10.4117 33.29 10.6152 33.0222C10.8187 32.7545 11.0735 32.5299 11.3647 32.3618C11.6559 32.1936 11.9777 32.0851 12.3113 32.0427C12.6449 32.0003 12.9837 32.0248 13.3077 32.1148C13.6317 32.2048 13.9346 32.3584 14.1986 32.5667C14.4626 32.775 14.6824 33.0339 14.8452 33.3281L14.8748 33.3766L18.8151 39.7048C19.0086 40.0169 19.2986 40.2575 19.6411 40.3899C19.9837 40.5223 20.3601 40.5393 20.7132 40.4384C21.0663 40.3374 21.3769 40.1241 21.5977 39.8306C21.8186 39.5372 21.9377 39.1798 21.937 38.8125V16.0312C21.937 15.3599 22.2037 14.7161 22.6784 14.2414C23.1531 13.7667 23.7969 13.5 24.4682 13.5C25.1395 13.5 25.7834 13.7667 26.2581 14.2414C26.7328 14.7161 26.9995 15.3599 26.9995 16.0312V30.375C26.9995 30.8226 27.1773 31.2518 27.4937 31.5682C27.8102 31.8847 28.2394 32.0625 28.687 32.0625C29.1345 32.0625 29.5637 31.8847 29.8802 31.5682C30.1967 31.2518 30.3745 30.8226 30.3745 30.375V27.8438C30.3745 27.1724 30.6412 26.5286 31.1159 26.0539C31.5906 25.5792 32.2344 25.3125 32.9057 25.3125C33.577 25.3125 34.2209 25.5792 34.6956 26.0539C35.1703 26.5286 35.437 27.1724 35.437 27.8438V32.0625C35.437 32.5101 35.6148 32.9393 35.9312 33.2557C36.2477 33.5722 36.6769 33.75 37.1245 33.75C37.572 33.75 38.0012 33.5722 38.3177 33.2557C38.6342 32.9393 38.812 32.5101 38.812 32.0625V31.2188C38.812 30.5474 39.0787 29.9036 39.5534 29.4289C40.0281 28.9542 40.6719 28.6875 41.3432 28.6875C42.0145 28.6875 42.6584 28.9542 43.1331 29.4289C43.6078 29.9036 43.8745 30.5474 43.8745 31.2188V38.8125C43.8745 43.3709 42.3768 46.4695 42.3642 46.4948C42.1642 46.8951 42.1315 47.3584 42.2731 47.7829C42.4147 48.2073 42.7191 48.5581 43.1193 48.7582C43.3534 48.8766 43.6121 48.938 43.8745 48.9375C44.188 48.9377 44.4953 48.8506 44.7621 48.6859C45.0289 48.5213 45.2445 48.2855 45.3848 48.0052C45.4628 47.8512 47.2516 44.2083 47.2516 38.8125V31.2188C47.2516 30.443 47.0987 29.6748 46.8018 28.958C46.5048 28.2413 46.0696 27.5901 45.5209 27.0417C44.9723 26.4932 44.3209 26.0582 43.6041 25.7615C42.8873 25.4648 42.119 25.3122 41.3432 25.3125Z" fill="white"/>
</svg>
