<svg width="54" height="54" viewBox="0 0 54 54" fill="none" xmlns="http://www.w3.org/2000/svg">
    <path d="M47.25 10.125H6.75C5.85489 10.125 4.99645 10.4806 4.36351 11.1135C3.73058 11.7464 3.375 12.6049 3.375 13.5V40.5C3.375 41.3951 3.73058 42.2535 4.36351 42.8865C4.99645 43.5194 5.85489 43.875 6.75 43.875H47.25C48.1451 43.875 49.0035 43.5194 49.6365 42.8865C50.2694 42.2535 50.625 41.3951 50.625 40.5V13.5C50.625 12.6049 50.2694 11.7464 49.6365 11.1135C49.0035 10.4806 48.1451 10.125 47.25 10.125ZM47.25 40.5H6.75V13.5H47.25V40.5ZM43.875 27C43.875 27.4476 43.6972 27.8768 43.3807 28.1932C43.0643 28.5097 42.6351 28.6875 42.1875 28.6875H11.8125C11.3649 28.6875 10.9357 28.5097 10.6193 28.1932C10.3028 27.8768 10.125 27.4476 10.125 27C10.125 26.5524 10.3028 26.1232 10.6193 25.8068C10.9357 25.4903 11.3649 25.3125 11.8125 25.3125H42.1875C42.6351 25.3125 43.0643 25.4903 43.3807 25.8068C43.6972 26.1232 43.875 26.5524 43.875 27ZM43.875 20.25C43.875 20.6976 43.6972 21.1268 43.3807 21.4432C43.0643 21.7597 42.6351 21.9375 42.1875 21.9375H11.8125C11.3649 21.9375 10.9357 21.7597 10.6193 21.4432C10.3028 21.1268 10.125 20.6976 10.125 20.25C10.125 19.8024 10.3028 19.3732 10.6193 19.0568C10.9357 18.7403 11.3649 18.5625 11.8125 18.5625H42.1875C42.6351 18.5625 43.0643 18.7403 43.3807 19.0568C43.6972 19.3732 43.875 19.8024 43.875 20.25ZM15.1875 33.75C15.1875 34.1976 15.0097 34.6268 14.6932 34.9432C14.3768 35.2597 13.9476 35.4375 13.5 35.4375H11.8125C11.3649 35.4375 10.9357 35.2597 10.6193 34.9432C10.3028 34.6268 10.125 34.1976 10.125 33.75C10.125 33.3024 10.3028 32.8732 10.6193 32.5568C10.9357 32.2403 11.3649 32.0625 11.8125 32.0625H13.5C13.9476 32.0625 14.3768 32.2403 14.6932 32.5568C15.0097 32.8732 15.1875 33.3024 15.1875 33.75ZM35.4375 33.75C35.4375 34.1976 35.2597 34.6268 34.9432 34.9432C34.6268 35.2597 34.1976 35.4375 33.75 35.4375H20.25C19.8024 35.4375 19.3732 35.2597 19.0568 34.9432C18.7403 34.6268 18.5625 34.1976 18.5625 33.75C18.5625 33.3024 18.7403 32.8732 19.0568 32.5568C19.3732 32.2403 19.8024 32.0625 20.25 32.0625H33.75C34.1976 32.0625 34.6268 32.2403 34.9432 32.5568C35.2597 32.8732 35.4375 33.3024 35.4375 33.75ZM43.875 33.75C43.875 34.1976 43.6972 34.6268 43.3807 34.9432C43.0643 35.2597 42.6351 35.4375 42.1875 35.4375H40.5C40.0524 35.4375 39.6232 35.2597 39.3068 34.9432C38.9903 34.6268 38.8125 34.1976 38.8125 33.75C38.8125 33.3024 38.9903 32.8732 39.3068 32.5568C39.6232 32.2403 40.0524 32.0625 40.5 32.0625H42.1875C42.6351 32.0625 43.0643 32.2403 43.3807 32.5568C43.6972 32.8732 43.875 33.3024 43.875 33.75Z" fill="white"/>
</svg>
