<svg width="510" height="110" viewBox="0 0 510 110" fill="none" xmlns="http://www.w3.org/2000/svg">
<path fill-rule="evenodd" clip-rule="evenodd" d="M19.9922 15.5924C19.9922 16.3649 20.4961 16.9938 21.1117 16.9938H98.8459C99.4647 16.9938 99.9655 16.3553 99.9655 15.5924V12.796C99.9655 12.0235 99.4647 11.3978 98.8459 11.3978H21.1117C20.4961 11.3978 19.9922 12.0363 19.9922 12.796V15.5924Z" fill="white"/>
<path fill-rule="evenodd" clip-rule="evenodd" d="M19.9922 98.0281C19.9922 98.8006 20.4961 99.4263 21.1117 99.4263H98.8459C99.4647 99.4263 99.9655 98.7879 99.9655 98.0281V95.2254C99.9655 94.4528 99.4647 93.824 98.8459 93.824H21.1117C20.4961 93.824 19.9922 94.4624 19.9922 95.2254V98.0281Z" fill="white"/>
<path fill-rule="evenodd" clip-rule="evenodd" d="M34.3896 5.18582C34.3896 5.96152 34.8904 6.5872 35.5123 6.5872H82.8476C83.4663 6.5872 83.9703 5.94875 83.9703 5.18582V2.38624C83.9703 1.62331 83.4663 0.984863 82.8476 0.984863H35.5123C34.8744 0.984863 34.3896 1.62331 34.3896 2.38624V5.18582Z" fill="white"/>
<path fill-rule="evenodd" clip-rule="evenodd" d="M34.3896 108.438C34.3896 109.21 34.8904 109.839 35.5123 109.839H82.8476C83.4663 109.839 83.9703 109.201 83.9703 108.438V105.638C83.9703 104.863 83.4663 104.237 82.8476 104.237H35.5123C34.8744 104.237 34.3896 104.875 34.3896 105.638V108.438Z" fill="white"/>
<path d="M111.648 22.5962H8.30869C6.09492 22.608 3.97638 23.4989 2.41848 25.0731C0.860577 26.6473 -0.00925538 28.776 7.42833e-05 30.9917V80.637C-0.00840574 82.8527 0.862239 84.9811 2.42074 86.5547C3.97923 88.1283 6.09811 89.0184 8.31188 89.0293H111.651C113.865 89.0184 115.983 88.1282 117.541 86.5545C119.099 84.9808 119.969 82.8524 119.96 80.637V30.9917C119.965 29.8942 119.754 28.8065 119.339 27.7906C118.924 26.7747 118.313 25.8506 117.541 25.071C116.77 24.2914 115.852 23.6716 114.841 23.247C113.83 22.8224 112.745 22.6012 111.648 22.5962ZM79.3865 76.1488C75.6739 76.9181 62.5779 71.3892 65.9364 68.9631H65.9587C71.0619 65.0877 74.3662 59.878 74.8574 55.7952C75.1317 53.5032 74.4683 51.7315 72.9852 50.7994C70.4049 49.1809 65.8535 50.461 59.8253 54.496C54.7509 57.8957 49.8135 58.7416 46.624 56.7593C44.7103 55.5781 43.6195 53.4872 43.9991 51.2144C45.3227 43.3392 54.0077 41.7974 53.3092 40.7024C52.6107 39.6075 43.1858 43.3839 41.8781 50.9686C41.3422 54.0874 42.8796 56.9699 45.5077 58.6044C47.3895 59.7727 52.6617 61.8891 61.0023 56.3028C68.4944 51.2846 73.7602 51.7986 72.1974 57.0051C67.8118 71.5424 48.8662 69.2504 54.4479 67.6287C60.1475 65.9752 66.5902 60.21 65.5345 59.5333C64.4788 58.8565 51.9505 71.702 41.5272 63.7279C38.0762 60.7304 35.9871 56.8454 35.9871 52.5998C35.9871 43.1094 46.3816 35.4193 59.2034 35.4193C73.5082 35.4193 75.2051 41.111 73.3105 40.8461C59.685 39.0042 48.627 50.8856 50.9203 52.1497C52.3524 52.9382 57.985 41.708 73.3233 42.8508C82.0975 43.4892 84.1962 55.2525 78.0437 63.6959C70.0317 74.6803 84.3302 75.1241 79.3865 76.1488Z" fill="white"/>
<path d="M146.044 72.1398C146.058 72.393 146.162 72.6315 146.336 72.8079C146.509 72.9843 146.74 73.0856 146.982 73.0915H151.565C151.807 73.0856 152.037 72.9843 152.211 72.8079C152.385 72.6315 152.489 72.393 152.503 72.1398V37.9518C152.489 37.6986 152.385 37.46 152.211 37.2836C152.037 37.1072 151.807 37.006 151.565 37H146.994C146.752 37.006 146.522 37.1072 146.348 37.2836C146.174 37.46 146.07 37.6986 146.056 37.9518L146.044 72.1398Z" fill="white"/>
<path d="M160.865 72.1397C160.879 72.3929 160.987 72.6315 161.169 72.8079C161.35 72.9842 161.591 73.0855 161.843 73.0915H166.524C166.778 73.094 167.023 72.9955 167.206 72.8173C167.388 72.639 167.494 72.3955 167.498 72.1397V50.2837H167.552L189.043 73.0756H190.277C190.527 73.0842 190.771 72.9925 190.954 72.8206C191.137 72.6487 191.245 72.4107 191.254 72.1587V37.9518C191.24 37.6986 191.132 37.46 190.951 37.2837C190.769 37.1073 190.529 37.006 190.277 37H185.545C185.29 36.9975 185.045 37.0959 184.862 37.2741C184.679 37.4522 184.573 37.6957 184.567 37.9518V59.4842H184.517L163.126 37.0159H161.839C161.589 37.0073 161.346 37.0986 161.163 37.2698C160.98 37.4411 160.871 37.6783 160.862 37.9296L160.865 72.1397Z" fill="white"/>
<path d="M198.852 72.1142C198.852 72.2428 198.877 72.3702 198.926 72.4889C198.975 72.6077 199.047 72.7156 199.137 72.8064C199.227 72.8972 199.334 72.9691 199.452 73.018C199.57 73.067 199.696 73.0919 199.823 73.0915H204.539C204.794 73.0837 205.036 72.9784 205.217 72.7969C205.398 72.6155 205.504 72.3714 205.513 72.1142V59.0693H218.157C218.412 59.0607 218.655 58.9547 218.836 58.7727C219.017 58.5908 219.122 58.3464 219.132 58.0888V53.859C219.122 53.6018 219.016 53.3577 218.836 53.1763C218.655 52.9948 218.412 52.8895 218.157 52.8817H205.513V43.1781H220.672C220.8 43.1786 220.927 43.1535 221.045 43.1044C221.163 43.0553 221.271 42.9832 221.361 42.8921C221.452 42.801 221.523 42.6928 221.572 42.5736C221.621 42.4544 221.647 42.3267 221.647 42.1976V37.9805C221.647 37.8515 221.621 37.7237 221.572 37.6046C221.523 37.4854 221.452 37.3772 221.361 37.2861C221.271 37.195 221.163 37.1228 221.045 37.0737C220.927 37.0246 220.8 36.9996 220.672 37H199.823C199.696 36.9996 199.569 37.0247 199.451 37.0738C199.333 37.1229 199.226 37.1951 199.136 37.2863C199.045 37.3774 198.974 37.4856 198.925 37.6048C198.876 37.7239 198.852 37.8516 198.852 37.9805V72.1142Z" fill="white"/>
<path d="M225.446 55.0918C225.446 65.1184 233.599 73.0915 243.839 73.0915C254.078 73.0915 262.297 65.1184 262.297 55.0918C262.297 45.0651 254.1 37 243.854 37C233.609 37 225.446 45.0747 225.446 55.0918ZM232.107 55.0918C232.107 48.7724 237.385 43.5099 243.839 43.5099C250.292 43.5099 255.621 48.7724 255.621 55.0918C255.621 61.4112 250.289 66.5753 243.839 66.5753C237.388 66.5753 232.107 61.408 232.107 55.0918Z" fill="white"/>
<path d="M266.977 69.1822C268.001 70.1341 271.794 73.0915 278.247 73.0915C285.471 73.0915 290.031 68.3318 290.031 63.1659C290.031 56.699 284.295 53.7924 279.325 51.8377C275.174 50.1845 273.278 48.5789 273.278 46.2244C273.278 44.6188 274.864 42.7149 277.787 42.7149C280.607 42.7149 284.497 45.2217 284.91 45.4723C285.525 45.8722 286.292 45.4723 286.701 44.8694L288.648 42.0136C288.818 41.7494 288.879 41.4303 288.82 41.1221C288.761 40.8139 288.586 40.5401 288.331 40.3572C287.307 39.6052 283.311 37 278.085 37C269.939 37 266.559 42.1627 266.559 46.6242C266.559 52.539 271.375 55.5471 276.189 57.451C280.492 59.1582 282.696 60.9129 282.696 63.48C282.696 65.6346 280.698 67.3418 278.035 67.3418C274.705 67.3418 270.554 64.3844 270.297 64.2321C270.163 64.1328 270.009 64.0628 269.845 64.0266C269.682 63.9905 269.513 63.9889 269.349 64.0221C269.185 64.0553 269.03 64.1225 268.893 64.2193C268.757 64.3161 268.642 64.4404 268.556 64.5843L266.714 67.6908C266.26 68.4651 266.517 68.7157 266.977 69.1822Z" fill="white"/>
<path d="M296.49 71.8708C296.489 72.033 296.52 72.1936 296.581 72.3433C296.643 72.493 296.733 72.6288 296.847 72.7425C296.961 72.8563 297.097 72.9458 297.245 73.0057C297.394 73.0655 297.553 73.0947 297.713 73.0913H302.195C302.516 73.0897 302.824 72.9612 303.052 72.7332C303.281 72.5052 303.412 72.1957 303.419 71.8708V55.8529L312.968 66.8781C313.779 67.6865 314.22 67.3282 314.492 67.062L317.294 64.4562C318.104 63.9174 318.104 63.1122 317.563 62.5733L309.857 53.7607L323.165 38.8302C323.313 38.6744 323.412 38.4773 323.448 38.2643C323.484 38.0514 323.456 37.8323 323.368 37.6355C323.28 37.4386 323.136 37.2729 322.954 37.1598C322.773 37.0467 322.561 36.9915 322.348 37.0011H317.247C317.057 37.004 316.871 37.0513 316.703 37.1393C316.534 37.2273 316.389 37.3536 316.276 37.5083L303.419 51.9317V38.2183C303.412 37.894 303.28 37.5853 303.051 37.358C302.823 37.1307 302.516 37.0026 302.195 37.0011H297.713C297.554 36.9977 297.395 37.0267 297.246 37.0864C297.098 37.1461 296.962 37.2353 296.848 37.3487C296.734 37.4621 296.644 37.5975 296.582 37.7468C296.521 37.8962 296.489 38.0565 296.49 38.2183V71.8708Z" fill="white"/>
<path d="M317.156 69.3806C318.07 70.5535 319.228 71.4967 320.544 72.1393C321.86 72.7819 323.299 73.1073 324.754 73.0909C330.596 73.0909 335.241 69.0251 335.241 61.9568V37.9523C335.236 37.6958 335.133 37.4517 334.956 37.2733C334.778 37.0949 334.539 36.9967 334.291 37.0001H329.598C329.35 36.9975 329.112 37.096 328.934 37.2742C328.756 37.4525 328.654 37.6961 328.648 37.9523V61.9568C328.648 65.464 326.601 67.0922 324.665 67.0922C323.017 67.0922 322.018 66.1749 321.369 65.464C320.921 65.0069 320.422 64.9054 319.871 65.4132L317.276 68.1079C317.125 68.2776 317.031 68.4938 317.01 68.7235C316.988 68.9532 317.04 69.1839 317.156 69.3806Z" fill="white"/>
<path d="M373.232 72.1129C373.231 72.2411 373.256 72.3681 373.304 72.4866C373.352 72.6052 373.423 72.713 373.513 72.8037C373.603 72.8945 373.709 72.9666 373.826 73.0157C373.943 73.0649 374.069 73.0902 374.196 73.0902H378.872C379.126 73.0814 379.366 72.9756 379.545 72.7941C379.724 72.6126 379.828 72.369 379.836 72.1129V58.9638H385.489L392.247 72.6269C392.325 72.7745 392.443 72.8966 392.587 72.9787C392.731 73.0608 392.896 73.0995 393.061 73.0902H398.4C398.576 73.0993 398.752 73.0592 398.908 72.9743C399.063 72.8893 399.193 72.7628 399.282 72.6085C399.371 72.4542 399.416 72.2781 399.413 72.0995C399.41 71.9209 399.358 71.7466 399.263 71.5957L392.288 58.5006C396.71 56.6951 399.825 52.8272 399.825 48.0835C399.81 45.1302 398.634 42.304 396.557 40.2258C394.48 38.1477 391.672 36.9874 388.749 37.0001H374.212C374.084 37.0001 373.959 37.0255 373.841 37.0749C373.724 37.1242 373.617 37.1965 373.528 37.2877C373.438 37.3788 373.367 37.4869 373.319 37.6058C373.271 37.7248 373.247 37.8521 373.247 37.9806L373.232 72.1129ZM379.89 53.4459V43.178H388.171C390.866 43.178 393.196 45.4467 393.196 48.1787C393.196 51.0662 390.856 53.4364 388.171 53.4364L379.89 53.4459Z" fill="white"/>
<path d="M450.353 72.1142C450.353 72.243 450.379 72.3704 450.428 72.4892C450.477 72.608 450.549 72.7158 450.64 72.8066C450.73 72.8973 450.837 72.9692 450.955 73.0181C451.073 73.067 451.2 73.0919 451.327 73.0915H472.174C472.301 73.0919 472.428 73.067 472.545 73.0181C472.663 72.9692 472.771 72.8973 472.861 72.8066C472.952 72.7158 473.023 72.608 473.073 72.4892C473.122 72.3704 473.147 72.243 473.148 72.1142V67.8844C473.148 67.7553 473.122 67.6276 473.073 67.5084C473.024 67.3892 472.953 67.281 472.862 67.1899C472.772 67.0988 472.664 67.0267 472.546 66.9776C472.428 66.9285 472.301 66.9034 472.174 66.9039H457.014V57.8826H469.663C469.791 57.883 469.918 57.8579 470.036 57.8088C470.154 57.7598 470.261 57.6876 470.352 57.5965C470.442 57.5054 470.514 57.3972 470.563 57.278C470.612 57.1589 470.637 57.0311 470.637 56.9021V52.6215C470.629 52.364 470.523 52.1195 470.342 51.9379C470.161 51.7563 469.918 51.6513 469.663 51.6441H457.014V43.1781H472.174C472.301 43.1786 472.428 43.1535 472.546 43.1044C472.664 43.0553 472.772 42.9832 472.862 42.8921C472.953 42.801 473.024 42.6928 473.073 42.5736C473.122 42.4544 473.148 42.3267 473.148 42.1976V37.9805C473.148 37.8515 473.122 37.7237 473.073 37.6046C473.024 37.4854 472.953 37.3772 472.862 37.2861C472.772 37.195 472.664 37.1228 472.546 37.0737C472.428 37.0246 472.301 36.9996 472.174 37H451.34C451.212 36.9996 451.085 37.0246 450.967 37.0737C450.849 37.1228 450.742 37.195 450.651 37.2861C450.561 37.3772 450.489 37.4854 450.44 37.6046C450.391 37.7237 450.366 37.8515 450.366 37.9805L450.353 72.1142Z" fill="white"/>
<path d="M479.607 72.1397C479.621 72.3929 479.729 72.6315 479.911 72.8079C480.092 72.9842 480.333 73.0855 480.585 73.0915H485.263C485.518 73.0941 485.763 72.9956 485.946 72.8175C486.129 72.6393 486.235 72.3958 486.241 72.1397V50.2837H486.292L507.788 73.0756H509.022C509.272 73.0842 509.516 72.9925 509.699 72.8206C509.882 72.6487 509.991 72.4107 510 72.1587V37.9518C509.985 37.6986 509.877 37.46 509.696 37.2837C509.514 37.1073 509.274 37.006 509.022 37H504.289C504.035 36.9975 503.79 37.096 503.607 37.2743C503.425 37.4525 503.32 37.696 503.315 37.9518V59.4842H503.261L481.869 37.0159H480.585C480.335 37.0073 480.091 37.0986 479.908 37.2698C479.725 37.4411 479.617 37.6783 479.607 37.9296V72.1397Z" fill="white"/>
<path d="M404.408 71.9195C404.374 72.0638 404.375 72.2141 404.409 72.3583C404.443 72.5025 404.509 72.6366 404.604 72.75C404.698 72.8634 404.816 72.9529 404.951 73.0114C405.085 73.0699 405.231 73.0957 405.376 73.0869H409.96C410.173 73.0789 410.379 73.0002 410.544 72.8627C410.709 72.7253 410.826 72.5366 410.875 72.3255L413.831 53.0639H413.984L422.998 72.5C423.071 72.6699 423.192 72.8137 423.347 72.9132C423.501 73.0126 423.681 73.0632 423.863 73.0583H424.772C424.956 73.0705 425.139 73.023 425.295 72.9227C425.451 72.8223 425.571 72.6743 425.638 72.5L434.552 53.0639H434.702L437.707 72.3255C437.777 72.5354 437.906 72.7198 438.078 72.8553C438.25 72.9908 438.458 73.0714 438.676 73.0869H443.309C443.455 73.1021 443.602 73.0799 443.737 73.0224C443.872 72.9649 443.991 72.8739 444.082 72.7577C444.174 72.6415 444.235 72.5039 444.26 72.3575C444.286 72.211 444.275 72.0604 444.228 71.9195L438.217 37.7643C438.191 37.5418 438.081 37.3382 437.91 37.1962C437.739 37.0543 437.521 36.985 437.301 37.003H436.486C436.308 36.9882 436.13 37.0288 435.975 37.1195C435.82 37.2102 435.697 37.3466 435.62 37.5105L424.416 61.4988H424.263L413.056 37.5105C412.974 37.3516 412.849 37.2197 412.696 37.1299C412.542 37.0401 412.367 36.9961 412.191 37.003H411.375C411.155 36.985 410.937 37.0543 410.766 37.1962C410.596 37.3382 410.486 37.5418 410.46 37.7643L404.408 71.9195Z" fill="white"/>
<path d="M342.459 72.1142C342.46 72.243 342.485 72.3704 342.535 72.4892C342.584 72.608 342.656 72.7158 342.746 72.8066C342.836 72.8973 342.944 72.9692 343.062 73.0181C343.18 73.067 343.306 73.0919 343.433 73.0915H364.28C364.408 73.0919 364.534 73.067 364.652 73.0181C364.77 72.9692 364.877 72.8973 364.968 72.8066C365.058 72.7158 365.13 72.608 365.179 72.4892C365.228 72.3704 365.254 72.243 365.254 72.1142V67.8844C365.253 67.624 365.15 67.3746 364.968 67.1909C364.785 67.0071 364.538 66.9039 364.28 66.9039H349.117V57.8826H361.77C361.897 57.883 362.024 57.8579 362.142 57.8088C362.26 57.7598 362.368 57.6876 362.458 57.5965C362.549 57.5054 362.621 57.3972 362.67 57.278C362.719 57.1589 362.744 57.0311 362.744 56.9021V52.6215C362.734 52.3642 362.628 52.1202 362.448 51.9388C362.267 51.7573 362.024 51.652 361.77 51.6441H349.117V43.1781H364.28C364.408 43.1786 364.534 43.1535 364.653 43.1044C364.771 43.0553 364.878 42.9832 364.969 42.8921C365.059 42.801 365.131 42.6928 365.18 42.5736C365.229 42.4544 365.254 42.3267 365.254 42.1976V37.9805C365.254 37.8515 365.229 37.7237 365.18 37.6046C365.131 37.4854 365.059 37.3772 364.969 37.2861C364.878 37.195 364.771 37.1228 364.653 37.0737C364.534 37.0246 364.408 36.9996 364.28 37H343.446C343.318 36.9996 343.192 37.0246 343.074 37.0737C342.955 37.1228 342.848 37.195 342.758 37.2861C342.667 37.3772 342.595 37.4854 342.546 37.6046C342.497 37.7237 342.472 37.8515 342.472 37.9805L342.459 72.1142Z" fill="white"/>
</svg>
