<svg width="120" height="109" viewBox="0 0 120 109" fill="none" xmlns="http://www.w3.org/2000/svg">
<path fill-rule="evenodd" clip-rule="evenodd" d="M19.9922 14.6077C19.9922 15.3802 20.4961 16.009 21.1117 16.009H98.8459C99.4647 16.009 99.9655 15.3706 99.9655 14.6077V11.8113C99.9655 11.0388 99.4647 10.4131 98.8459 10.4131H21.1117C20.4961 10.4131 19.9922 11.0515 19.9922 11.8113V14.6077Z" fill="white" fill-opacity="0.56"/>
<path fill-rule="evenodd" clip-rule="evenodd" d="M19.9922 97.0433C19.9922 97.8158 20.4961 98.4415 21.1117 98.4415H98.8459C99.4647 98.4415 99.9655 97.803 99.9655 97.0433V94.2405C99.9655 93.468 99.4647 92.8391 98.8459 92.8391H21.1117C20.4961 92.8391 19.9922 93.4776 19.9922 94.2405V97.0433Z" fill="white" fill-opacity="0.56"/>
<path fill-rule="evenodd" clip-rule="evenodd" d="M34.3896 4.20095C34.3896 4.97666 34.8904 5.60233 35.5123 5.60233H82.8476C83.4663 5.60233 83.9703 4.96389 83.9703 4.20095V1.40138C83.9703 0.638443 83.4663 0 82.8476 0H35.5123C34.8744 0 34.3896 0.638443 34.3896 1.40138V4.20095Z" fill="white" fill-opacity="0.19"/>
<path fill-rule="evenodd" clip-rule="evenodd" d="M34.3896 107.453C34.3896 108.226 34.8904 108.855 35.5123 108.855H82.8476C83.4663 108.855 83.9703 108.216 83.9703 107.453V104.654C83.9703 103.878 83.4663 103.252 82.8476 103.252H35.5123C34.8744 103.252 34.3896 103.891 34.3896 104.654V107.453Z" fill="white" fill-opacity="0.19"/>
<path d="M111.648 21.6113H8.3087C6.09492 21.6232 3.97638 22.514 2.41848 24.0882C0.860577 25.6624 -0.00925538 27.7912 7.42833e-05 30.0068V79.6522C-0.00840574 81.8678 0.862239 83.9962 2.42074 85.5698C3.97923 87.1434 6.09812 88.0335 8.31188 88.0445H111.651C113.865 88.0335 115.983 87.1433 117.541 85.5697C119.099 83.996 119.969 81.8675 119.96 79.6522V30.0068C119.965 28.9094 119.754 27.8216 119.339 26.8058C118.924 25.7899 118.313 24.8658 117.541 24.0862C116.77 23.3066 115.852 22.6868 114.841 22.2621C113.83 21.8375 112.745 21.6163 111.648 21.6113V21.6113ZM79.3865 75.1639C75.6739 75.9332 62.5779 70.4043 65.9364 67.9782H65.9587C71.0619 64.1029 74.3662 58.8932 74.8574 54.8103C75.1317 52.5183 74.4683 50.7467 72.9852 49.8145C70.4049 48.1961 65.8535 49.4762 59.8253 53.5111C54.7509 56.9108 49.8135 57.7568 46.624 55.7744C44.7103 54.5933 43.6195 52.5024 43.9991 50.2295C45.3227 42.3543 54.0077 40.8125 53.3092 39.7176C52.6107 38.6226 43.1858 42.399 41.8781 49.9837C41.3422 53.1025 42.8796 55.9851 45.5077 57.6195C47.3895 58.7878 52.6617 60.9043 61.0023 55.3179C68.4944 50.2997 73.7602 50.8137 72.1974 56.0202C67.8118 70.5575 48.8662 68.2655 54.4479 66.6439C60.1475 64.9903 66.5902 59.2252 65.5345 58.5484C64.4788 57.8717 51.9505 70.7171 41.5272 62.743C38.0762 59.7455 35.9871 55.8606 35.9871 51.6149C35.9871 42.1245 46.3816 34.4345 59.2034 34.4345C73.5082 34.4345 75.2051 40.1262 73.3105 39.8612C59.685 38.0193 48.627 49.9007 50.9203 51.1648C52.3524 51.9533 57.985 40.7231 73.3233 41.8659C82.0975 42.5044 84.1962 54.2677 78.0437 62.7111C70.0317 73.6955 84.3302 74.1392 79.3865 75.1639Z" fill="white"/>
</svg>
