<svg width="523" height="109" viewBox="0 0 523 109" fill="none" xmlns="http://www.w3.org/2000/svg">
<path d="M188.684 81.1806C188.699 81.5972 188.872 81.9924 189.166 82.2871C189.46 82.5819 189.855 82.7544 190.271 82.7701H198.039C198.456 82.7556 198.851 82.5835 199.146 82.2885C199.44 81.9935 199.612 81.5976 199.627 81.1806V25.7827C199.614 25.3654 199.442 24.9687 199.147 24.6735C198.852 24.3782 198.456 24.2065 198.039 24.1932H190.298C189.881 24.2077 189.486 24.3799 189.191 24.6749C188.896 24.9698 188.725 25.3658 188.71 25.7827L188.684 81.1806Z" fill="white"/>
<path d="M212.619 81.1806C212.633 81.5975 212.805 81.9934 213.1 82.2884C213.394 82.5834 213.79 82.7556 214.206 82.7701H221.811C222.232 82.7701 222.635 82.6026 222.933 82.3045C223.231 82.0064 223.398 81.6021 223.398 81.1806V45.1952H223.483L258.408 83.6019H260.414C260.82 83.6025 261.212 83.4467 261.507 83.1667C261.803 82.8867 261.979 82.5039 262.001 82.0972V25.7827C261.988 25.3653 261.816 24.9687 261.521 24.6734C261.227 24.3782 260.83 24.2065 260.414 24.1932H252.714C252.293 24.1932 251.889 24.3607 251.592 24.6587C251.294 24.9568 251.127 25.3611 251.127 25.7827V60.3428H251.042L216.275 23.3561H214.185C213.778 23.3555 213.387 23.5113 213.092 23.7913C212.796 24.0713 212.619 24.4541 212.598 24.8608L212.619 81.1806Z" fill="white"/>
<path d="M306.763 75.0241C307.02 75.0149 307.263 74.9086 307.445 74.7268C307.627 74.5449 307.733 74.3009 307.742 74.0439V69.2755C307.733 69.019 307.626 68.7756 307.445 68.5946C307.263 68.4136 307.019 68.3086 306.763 68.3007H277.939V60.4116C277.939 60.2832 277.914 60.156 277.864 60.0374C277.815 59.9187 277.743 59.811 277.652 59.7204C277.561 59.6298 277.453 59.5581 277.334 59.5095C277.216 59.4608 277.088 59.4361 276.96 59.4368H272.727C272.6 59.4375 272.474 59.4632 272.357 59.5126C272.239 59.562 272.133 59.634 272.044 59.7245C271.954 59.815 271.883 59.9223 271.835 60.0402C271.787 60.1581 271.763 60.2843 271.764 60.4116V82.8919C271.763 83.0204 271.788 83.1477 271.836 83.2666C271.885 83.3855 271.957 83.4936 272.047 83.5847C272.137 83.6758 272.245 83.748 272.364 83.7974C272.482 83.8467 272.609 83.8721 272.737 83.8721H276.971C277.23 83.8721 277.479 83.7688 277.663 83.585C277.847 83.4012 277.95 83.1519 277.95 82.8919V75.0241H306.763Z" fill="white"/>
<path d="M289.808 58.9918C293.46 58.9718 297.023 57.869 300.049 55.8224C303.075 53.7759 305.427 50.8775 306.808 47.4933C308.19 44.1091 308.538 40.391 307.81 36.8085C307.082 33.226 305.31 29.9398 302.718 27.3651C300.126 24.7904 296.83 23.0425 293.246 22.3424C289.662 21.6422 285.951 22.0211 282.582 23.4313C279.214 24.8414 276.338 27.2195 274.318 30.2652C272.298 33.3109 271.225 36.8875 271.235 40.5434C271.222 42.982 271.696 45.3986 272.627 47.6521C273.558 49.9056 274.928 51.9507 276.657 53.6682C278.386 55.3856 280.44 56.7409 282.698 57.655C284.956 58.569 287.373 59.0235 289.808 58.9918ZM289.808 52.3001C287.472 52.3054 285.187 51.6158 283.243 50.319C281.298 49.0222 279.783 47.1764 278.887 45.0159C277.992 42.8553 277.758 40.4772 278.214 38.1832C278.671 35.8892 279.797 33.7825 281.451 32.1304C283.105 30.4782 285.212 29.355 287.504 28.9032C289.796 28.4514 292.171 28.6913 294.327 29.5925C296.482 30.4937 298.322 32.0156 299.613 33.9652C300.904 35.9148 301.588 38.2043 301.577 40.5434C301.54 43.6545 300.287 46.6273 298.088 48.8248C295.888 51.0223 292.916 52.2699 289.808 52.3001Z" fill="white"/>
<path d="M140 81.1806C140 81.6021 140.167 82.0064 140.465 82.3045C140.763 82.6026 141.166 82.7701 141.588 82.7701H149.276C149.693 82.7556 150.088 82.5834 150.383 82.2884C150.677 81.9935 150.849 81.5975 150.864 81.1806V61.5137H161.31C166.273 61.4717 171.019 59.4663 174.511 55.9348C178.004 52.4034 179.96 47.6324 179.952 42.6627C179.952 32.5379 171.486 24.172 161.23 24.172H141.588C141.166 24.172 140.763 24.3395 140.465 24.6375C140.167 24.9356 140 25.3399 140 25.7615V81.1806ZM150.864 51.3041V34.4823H160.558C165.241 34.4823 169.168 38.0003 169.168 42.5991C169.178 43.7381 168.963 44.8678 168.536 45.9231C168.108 46.9785 167.475 47.9385 166.675 48.7478C165.874 49.5571 164.922 50.1997 163.872 50.6384C162.822 51.0772 161.696 51.3034 160.558 51.3041H150.864Z" fill="white"/>
<path d="M312.388 80.8416C312.219 82.0125 312.917 82.7701 313.976 82.7701H321.506C321.859 82.7537 322.197 82.6221 322.468 82.3954C322.739 82.1687 322.929 81.8593 323.009 81.5144L327.856 49.7994H328.104L342.921 82.6853C343.038 82.9632 343.236 83.1992 343.489 83.3628C343.742 83.5263 344.038 83.6096 344.339 83.6019H345.848C346.151 83.6215 346.452 83.5429 346.708 83.3779C346.963 83.2129 347.159 82.9701 347.266 82.6853L361.892 49.7994H362.141L367.073 81.5144C367.183 81.8575 367.394 82.1599 367.676 82.3834C367.959 82.6069 368.301 82.7415 368.66 82.7701H376.27C377.328 82.7701 378.021 82.0125 377.772 80.8416L367.882 24.6118C367.843 24.2482 367.665 23.9139 367.384 23.6796C367.104 23.4453 366.744 23.3293 366.379 23.3561H365.041C364.747 23.3329 364.453 23.4009 364.2 23.5506C363.946 23.7004 363.744 23.9248 363.622 24.1932L345.234 63.686H344.985L326.596 24.1932C326.465 23.9311 326.261 23.7127 326.008 23.5641C325.756 23.4156 325.465 23.3434 325.173 23.3561H323.839C323.474 23.3292 323.113 23.4451 322.832 23.6792C322.551 23.9134 322.371 24.2477 322.331 24.6118L312.388 80.8416Z" fill="white"/>
<path d="M389.737 81.1807C389.752 81.5976 389.924 81.9935 390.218 82.2885C390.513 82.5835 390.908 82.7556 391.325 82.7701H399.098C399.515 82.7556 399.91 82.5835 400.205 82.2885C400.499 81.9935 400.671 81.5976 400.686 81.1807V25.7827C400.673 25.3654 400.501 24.9687 400.206 24.6735C399.911 24.3782 399.515 24.2065 399.098 24.1932H391.325C390.908 24.2065 390.512 24.3782 390.217 24.6735C389.922 24.9687 389.751 25.3654 389.737 25.7827V81.1807Z" fill="white"/>
<path d="M411.878 81.1806C411.892 81.5975 412.064 81.9934 412.359 82.2884C412.654 82.5834 413.049 82.7556 413.465 82.7701H421.07C421.491 82.7701 421.894 82.6026 422.192 82.3045C422.49 82.0064 422.657 81.6021 422.657 81.1806V45.1952H422.742L457.667 83.6019H459.672C460.079 83.6025 460.471 83.4467 460.766 83.1667C461.062 82.8867 461.238 82.5039 461.26 82.0972V25.7827C461.247 25.3653 461.075 24.9687 460.78 24.6734C460.485 24.3782 460.089 24.2065 459.672 24.1932H451.984C451.563 24.1932 451.159 24.3607 450.861 24.6587C450.563 24.9568 450.396 25.3611 450.396 25.7827V60.3428H450.311L415.545 23.3561H413.428C413.022 23.3555 412.63 23.5113 412.335 23.7913C412.039 24.0713 411.863 24.4541 411.841 24.8608L411.878 81.1806Z" fill="white"/>
<path d="M472.097 81.1807C472.096 81.5879 472.252 81.9799 472.531 82.2756C472.811 82.5714 473.193 82.7484 473.6 82.7701H493.406C501.184 82.7603 508.64 79.6625 514.14 74.1561C519.64 68.6496 522.734 61.1841 522.744 53.3969C522.744 37.3275 509.514 24.1932 493.406 24.1932H473.6C473.193 24.215 472.811 24.392 472.531 24.6877C472.252 24.9835 472.096 25.3754 472.097 25.7827V81.1807ZM482.902 72.5605V34.3181H492.427C503.291 34.3181 511.229 42.5197 511.229 53.3916C511.229 64.3536 503.291 72.5552 492.427 72.5552L482.902 72.5605Z" fill="white"/>
<path fill-rule="evenodd" clip-rule="evenodd" d="M19.9922 14.6075C19.9922 15.38 20.4961 16.0089 21.1117 16.0089H98.8459C99.4647 16.0089 99.9655 15.3705 99.9655 14.6075V11.8112C99.9655 11.0386 99.4647 10.413 98.8459 10.413H21.1117C20.4961 10.413 19.9922 11.0514 19.9922 11.8112V14.6075Z" fill="white"/>
<path fill-rule="evenodd" clip-rule="evenodd" d="M19.9922 97.0433C19.9922 97.8158 20.4961 98.4415 21.1117 98.4415H98.8459C99.4647 98.4415 99.9655 97.803 99.9655 97.0433V94.2405C99.9655 93.468 99.4647 92.8391 98.8459 92.8391H21.1117C20.4961 92.8391 19.9922 93.4776 19.9922 94.2405V97.0433Z" fill="white"/>
<path fill-rule="evenodd" clip-rule="evenodd" d="M34.3896 4.20095C34.3896 4.97666 34.8904 5.60233 35.5123 5.60233H82.8476C83.4663 5.60233 83.9703 4.96389 83.9703 4.20095V1.40138C83.9703 0.638443 83.4663 0 82.8476 0H35.5123C34.8744 0 34.3896 0.638443 34.3896 1.40138V4.20095Z" fill="white"/>
<path fill-rule="evenodd" clip-rule="evenodd" d="M34.3896 107.453C34.3896 108.226 34.8904 108.855 35.5123 108.855H82.8476C83.4663 108.855 83.9703 108.216 83.9703 107.453V104.654C83.9703 103.878 83.4663 103.252 82.8476 103.252H35.5123C34.8744 103.252 34.3896 103.891 34.3896 104.654V107.453Z" fill="white"/>
<path d="M111.648 21.6113H8.30869C6.09492 21.6232 3.97638 22.514 2.41848 24.0882C0.860577 25.6624 -0.00925538 27.7912 7.42833e-05 30.0068V79.6521C-0.00840574 81.8678 0.862239 83.9962 2.42074 85.5698C3.97923 87.1434 6.09811 88.0335 8.31188 88.0445H111.651C113.865 88.0335 115.983 87.1433 117.541 85.5697C119.099 83.996 119.969 81.8675 119.96 79.6521V30.0068C119.965 28.9094 119.754 27.8216 119.339 26.8058C118.924 25.7899 118.313 24.8658 117.541 24.0862C116.77 23.3066 115.852 22.6868 114.841 22.2621C113.83 21.8375 112.745 21.6163 111.648 21.6113ZM79.3865 75.1639C75.6739 75.9332 62.5779 70.4043 65.9364 67.9782H65.9587C71.0619 64.1029 74.3662 58.8932 74.8574 54.8103C75.1317 52.5183 74.4683 50.7467 72.9852 49.8145C70.4049 48.1961 65.8535 49.4762 59.8253 53.5111C54.7509 56.9108 49.8135 57.7568 46.624 55.7744C44.7103 54.5933 43.6195 52.5024 43.9991 50.2295C45.3227 42.3543 54.0077 40.8125 53.3092 39.7176C52.6107 38.6226 43.1858 42.399 41.8781 49.9837C41.3422 53.1025 42.8796 55.9851 45.5077 57.6195C47.3895 58.7878 52.6617 60.9043 61.0023 55.3179C68.4944 50.2997 73.7602 50.8137 72.1974 56.0202C67.8118 70.5575 48.8662 68.2655 54.4479 66.6439C60.1475 64.9903 66.5902 59.2252 65.5345 58.5484C64.4788 57.8717 51.9505 70.7171 41.5272 62.743C38.0762 59.7455 35.9871 55.8606 35.9871 51.6149C35.9871 42.1245 46.3816 34.4345 59.2034 34.4345C73.5082 34.4345 75.2051 40.1262 73.3105 39.8612C59.685 38.0193 48.627 49.9007 50.9203 51.1648C52.3524 51.9533 57.985 40.7231 73.3233 41.8659C82.0975 42.5044 84.1962 54.2677 78.0437 62.7111C70.0317 73.6955 84.3302 74.1392 79.3865 75.1639Z" fill="white"/>
</svg>
