<svg width="32" height="32" viewBox="0 0 32 32" fill="none" xmlns="http://www.w3.org/2000/svg">
<path d="M26 5H6C5.20435 5 4.44129 5.31607 3.87868 5.87868C3.31607 6.44129 3 7.20435 3 8V22C3 22.7956 3.31607 23.5587 3.87868 24.1213C4.44129 24.6839 5.20435 25 6 25H26C26.7956 25 27.5587 24.6839 28.1213 24.1213C28.6839 23.5587 29 22.7956 29 22V8C29 7.20435 28.6839 6.44129 28.1213 5.87868C27.5587 5.31607 26.7956 5 26 5ZM27 22C27 22.2652 26.8946 22.5196 26.7071 22.7071C26.5196 22.8946 26.2652 23 26 23H6C5.73478 23 5.48043 22.8946 5.29289 22.7071C5.10536 22.5196 5 22.2652 5 22V8C5 7.73478 5.10536 7.48043 5.29289 7.29289C5.48043 7.10536 5.73478 7 6 7H26C26.2652 7 26.5196 7.10536 26.7071 7.29289C26.8946 7.48043 27 7.73478 27 8V22ZM21 28C21 28.2652 20.8946 28.5196 20.7071 28.7071C20.5196 28.8946 20.2652 29 20 29H12C11.7348 29 11.4804 28.8946 11.2929 28.7071C11.1054 28.5196 11 28.2652 11 28C11 27.7348 11.1054 27.4804 11.2929 27.2929C11.4804 27.1054 11.7348 27 12 27H20C20.2652 27 20.5196 27.1054 20.7071 27.2929C20.8946 27.4804 21 27.7348 21 28Z" fill="#828282"/>
<path d="M13.5978 11.1397C13.5643 11.0676 13.5114 11.0066 13.4451 10.9639C13.3788 10.9211 13.3018 10.8984 13.2233 10.8984C13.1447 10.8984 13.0678 10.9211 13.0015 10.9639C12.9352 11.0066 12.8822 11.0676 12.8488 11.1397L9.53861 18.2793C9.51549 18.3292 9.50227 18.3833 9.49972 18.4384C9.49717 18.4935 9.50534 18.5485 9.52376 18.6004C9.56096 18.7052 9.63765 18.7907 9.73697 18.8381C9.83628 18.8855 9.95008 18.891 10.0533 18.8532C10.1566 18.8154 10.2408 18.7376 10.2875 18.6368L11.1492 16.7784H15.2973L16.159 18.6368C16.1822 18.6867 16.2147 18.7315 16.2549 18.7686C16.2951 18.8058 16.3421 18.8345 16.3932 18.8532C16.4444 18.8719 16.4986 18.8802 16.5529 18.8776C16.6072 18.875 16.6604 18.8616 16.7096 18.8381C16.7588 18.8147 16.8029 18.7816 16.8395 18.7408C16.8761 18.7 16.9044 18.6523 16.9228 18.6004C16.9412 18.5485 16.9494 18.4935 16.9469 18.4384C16.9443 18.3833 16.9311 18.3292 16.908 18.2793L13.5978 11.1397ZM11.5387 15.9385L13.2233 12.3052L14.9079 15.9385H11.5387ZM19.4299 13.4186C18.77 13.4186 18.2543 13.6008 17.8974 13.9604C17.8227 14.0395 17.7814 14.145 17.7823 14.2546C17.7831 14.3641 17.8262 14.469 17.9021 14.5468C17.9781 14.6246 18.0811 14.6692 18.189 14.671C18.2969 14.6729 18.4013 14.6319 18.4798 14.5568C18.6763 14.3588 18.997 14.2586 19.4299 14.2586C20.1142 14.2586 20.6713 14.731 20.6713 15.3085V15.4776C20.3041 15.2282 19.8717 15.0962 19.4299 15.0985C18.2889 15.0985 17.3611 15.9463 17.3611 16.9884C17.3611 18.0305 18.2889 18.8783 19.4299 18.8783C19.8719 18.8803 20.3043 18.7477 20.6713 18.4977C20.6764 18.6091 20.7249 18.7138 20.8062 18.7889C20.8874 18.864 20.9947 18.9032 21.1044 18.898C21.2142 18.8928 21.3174 18.8435 21.3913 18.761C21.4653 18.6786 21.504 18.5697 21.4988 18.4583V15.3085C21.4988 14.2665 20.5709 13.4186 19.4299 13.4186ZM19.4299 18.0383C18.7457 18.0383 18.1886 17.5659 18.1886 16.9884C18.1886 16.4109 18.7457 15.9385 19.4299 15.9385C20.1142 15.9385 20.6713 16.4109 20.6713 16.9884C20.6713 17.5659 20.1142 18.0383 19.4299 18.0383Z" fill="#828282"/>
</svg>
