<svg width="32" height="32" viewBox="0 0 32 32" fill="none" xmlns="http://www.w3.org/2000/svg">
<path d="M6 27L26 27C26.7956 27 27.5587 26.6839 28.1213 26.1213C28.6839 25.5587 29 24.7956 29 24L29 10C29 9.20435 28.6839 8.44129 28.1213 7.87868C27.5587 7.31607 26.7956 7 26 7L6 7C5.20435 7 4.44129 7.31607 3.87868 7.87868C3.31607 8.44129 3 9.20435 3 10L3 24C3 24.7956 3.31607 25.5587 3.87868 26.1213C4.44129 26.6839 5.20435 27 6 27ZM5 10C5 9.73478 5.10536 9.48043 5.29289 9.29289C5.48043 9.10536 5.73478 9 6 9L26 9C26.2652 9 26.5196 9.10536 26.7071 9.29289C26.8946 9.48043 27 9.73478 27 10L27 24C27 24.2652 26.8946 24.5196 26.7071 24.7071C26.5196 24.8946 26.2652 25 26 25L6 25C5.73478 25 5.48043 24.8946 5.29289 24.7071C5.10536 24.5196 5 24.2652 5 24L5 10ZM11 4C11 3.73478 11.1054 3.48043 11.2929 3.29289C11.4804 3.10536 11.7348 3 12 3L20 3C20.2652 3 20.5196 3.10536 20.7071 3.29289C20.8946 3.48043 21 3.73478 21 4C21 4.26522 20.8946 4.51957 20.7071 4.70711C20.5196 4.89464 20.2652 5 20 5L12 5C11.7348 5 11.4804 4.89464 11.2929 4.70711C11.1054 4.51957 11 4.26522 11 4Z" fill="#828282"/>
<path d="M13.5992 13.3429C13.5658 13.2707 13.5128 13.2097 13.4465 13.167C13.3802 13.1243 13.3033 13.1016 13.2248 13.1016C13.1462 13.1016 13.0693 13.1243 13.003 13.167C12.9367 13.2097 12.8837 13.2707 12.8503 13.3429L9.54008 20.4824C9.51695 20.5323 9.50374 20.5864 9.50119 20.6415C9.49864 20.6966 9.50681 20.7516 9.52523 20.8035C9.56243 20.9083 9.63912 20.9938 9.73843 21.0413C9.83775 21.0887 9.95155 21.0941 10.0548 21.0563C10.1581 21.0186 10.2423 20.9407 10.289 20.8399L11.1507 18.9815H15.2988L16.1605 20.8399C16.1836 20.8898 16.2162 20.9346 16.2564 20.9718C16.2966 21.0089 16.3436 21.0376 16.3947 21.0563C16.4458 21.075 16.5001 21.0833 16.5544 21.0807C16.6087 21.0781 16.6619 21.0647 16.7111 21.0413C16.7603 21.0178 16.8044 20.9847 16.841 20.9439C16.8776 20.9031 16.9059 20.8554 16.9243 20.8035C16.9427 20.7516 16.9509 20.6966 16.9483 20.6415C16.9458 20.5864 16.9326 20.5323 16.9094 20.4824L13.5992 13.3429ZM11.5402 18.1416L13.2248 14.5083L14.9093 18.1416H11.5402ZM19.4314 15.6218C18.7714 15.6218 18.2558 15.8039 17.8989 16.1635C17.8242 16.2426 17.7828 16.3481 17.7837 16.4577C17.7846 16.5672 17.8276 16.6721 17.9036 16.7499C17.9796 16.8277 18.0825 16.8723 18.1904 16.8742C18.2984 16.876 18.4027 16.835 18.4813 16.7599C18.6778 16.562 18.9985 16.4617 19.4314 16.4617C20.1157 16.4617 20.6727 16.9342 20.6727 17.5116V17.6807C20.3055 17.4313 19.8732 17.2993 19.4314 17.3017C18.2904 17.3017 17.3625 18.1495 17.3625 19.1915C17.3625 20.2336 18.2904 21.0814 19.4314 21.0814C19.8734 21.0834 20.3058 20.9508 20.6727 20.7008C20.6779 20.8122 20.7264 20.9169 20.8076 20.992C20.8889 21.0671 20.9962 21.1063 21.1059 21.1011C21.2156 21.0959 21.3188 21.0466 21.3928 20.9642C21.4668 20.8817 21.5054 20.7728 21.5003 20.6614V17.5116C21.5003 16.4696 20.5724 15.6218 19.4314 15.6218ZM19.4314 20.2415C18.7471 20.2415 18.1901 19.769 18.1901 19.1915C18.1901 18.6141 18.7471 18.1416 19.4314 18.1416C20.1157 18.1416 20.6727 18.6141 20.6727 19.1915C20.6727 19.769 20.1157 20.2415 19.4314 20.2415Z" fill="#828282"/>
</svg>
