<svg width="32" height="32" viewBox="0 0 32 32" fill="none" xmlns="http://www.w3.org/2000/svg">
<path d="M27 26L27 6C27 5.20435 26.6839 4.44129 26.1213 3.87868C25.5587 3.31607 24.7956 3 24 3L10 3C9.20435 3 8.44129 3.31607 7.87868 3.87868C7.31607 4.44129 7 5.20435 7 6L7 26C7 26.7956 7.31607 27.5587 7.87868 28.1213C8.44129 28.6839 9.20435 29 10 29L24 29C24.7956 29 25.5587 28.6839 26.1213 28.1213C26.6839 27.5587 27 26.7956 27 26ZM10 27C9.73478 27 9.48043 26.8946 9.29289 26.7071C9.10536 26.5196 9 26.2652 9 26L9 6C9 5.73478 9.10536 5.48043 9.29289 5.29289C9.48043 5.10536 9.73478 5 10 5L24 5C24.2652 5 24.5196 5.10536 24.7071 5.29289C24.8946 5.48043 25 5.73478 25 6L25 26C25 26.2652 24.8946 26.5196 24.7071 26.7071C24.5196 26.8946 24.2652 27 24 27L10 27ZM4 21C3.73478 21 3.48043 20.8946 3.29289 20.7071C3.10536 20.5196 3 20.2652 3 20L3 12C3 11.7348 3.10536 11.4804 3.29289 11.2929C3.48043 11.1054 3.73478 11 4 11C4.26522 11 4.51957 11.1054 4.70711 11.2929C4.89464 11.4804 5 11.7348 5 12L5 20C5 20.2652 4.89464 20.5196 4.70711 20.7071C4.51957 20.8946 4.26522 21 4 21Z" fill="#828282"/>
<path d="M15.2001 11.7403C15.1666 11.6682 15.1137 11.6072 15.0474 11.5644C14.9811 11.5217 14.9041 11.499 14.8256 11.499C14.747 11.499 14.6701 11.5217 14.6038 11.5644C14.5375 11.6072 14.4845 11.6682 14.4511 11.7403L11.1409 18.8799C11.1178 18.9298 11.1046 18.9838 11.102 19.0389C11.0995 19.094 11.1076 19.1491 11.1261 19.201C11.1633 19.3058 11.2399 19.3913 11.3393 19.4387C11.4386 19.4861 11.5524 19.4915 11.6556 19.4538C11.7589 19.416 11.8431 19.3382 11.8898 19.2374L12.7515 17.379H16.8996L17.7613 19.2374C17.7845 19.2873 17.817 19.3321 17.8572 19.3692C17.8974 19.4064 17.9444 19.4351 17.9955 19.4538C18.0467 19.4725 18.1009 19.4808 18.1552 19.4782C18.2095 19.4756 18.2627 19.4622 18.3119 19.4387C18.3611 19.4152 18.4052 19.3822 18.4418 19.3414C18.4784 19.3006 18.5067 19.2529 18.5251 19.201C18.5435 19.1491 18.5517 19.094 18.5492 19.0389C18.5466 18.9838 18.5334 18.9298 18.5103 18.8799L15.2001 11.7403ZM13.141 16.5391L14.8256 12.9058L16.5102 16.5391H13.141ZM21.0322 14.0192C20.3723 14.0192 19.8566 14.2014 19.4997 14.561C19.425 14.64 19.3837 14.7456 19.3845 14.8551C19.3854 14.9647 19.4285 15.0696 19.5044 15.1474C19.5804 15.2252 19.6833 15.2698 19.7913 15.2716C19.8992 15.2735 20.0035 15.2325 20.0821 15.1573C20.2786 14.9594 20.5993 14.8592 21.0322 14.8592C21.7165 14.8592 22.2736 15.3316 22.2736 15.9091V16.0781C21.9064 15.8288 21.474 15.6968 21.0322 15.6991C19.8912 15.6991 18.9633 16.5469 18.9633 17.589C18.9633 18.6311 19.8912 19.4789 21.0322 19.4789C21.4742 19.4808 21.9066 19.3483 22.2736 19.0983C22.2787 19.2097 22.3272 19.3144 22.4085 19.3895C22.4897 19.4645 22.597 19.5038 22.7067 19.4986C22.8165 19.4933 22.9197 19.4441 22.9936 19.3616C23.0676 19.2792 23.1063 19.1703 23.1011 19.0589V15.9091C23.1011 14.867 22.1732 14.0192 21.0322 14.0192ZM21.0322 18.6389C20.3479 18.6389 19.7909 18.1665 19.7909 17.589C19.7909 17.0115 20.3479 16.5391 21.0322 16.5391C21.7165 16.5391 22.2736 17.0115 22.2736 17.589C22.2736 18.1665 21.7165 18.6389 21.0322 18.6389Z" fill="#828282"/>
</svg>
