<svg width="32" height="32" viewBox="0 0 32 32" fill="none" xmlns="http://www.w3.org/2000/svg">
<path d="M5 6L5 26C5 26.7956 5.31607 27.5587 5.87868 28.1213C6.44129 28.6839 7.20435 29 8 29H22C22.7956 29 23.5587 28.6839 24.1213 28.1213C24.6839 27.5587 25 26.7956 25 26V6C25 5.20435 24.6839 4.44129 24.1213 3.87868C23.5587 3.31607 22.7956 3 22 3H8C7.20435 3 6.44129 3.31607 5.87868 3.87868C5.31607 4.44129 5 5.20435 5 6ZM22 5C22.2652 5 22.5196 5.10536 22.7071 5.29289C22.8946 5.48043 23 5.73478 23 6V26C23 26.2652 22.8946 26.5196 22.7071 26.7071C22.5196 26.8946 22.2652 27 22 27H8C7.73478 27 7.48043 26.8946 7.29289 26.7071C7.10536 26.5196 7 26.2652 7 26L7 6C7 5.73478 7.10536 5.48043 7.29289 5.29289C7.48043 5.10536 7.73478 5 8 5H22ZM28 11C28.2652 11 28.5196 11.1054 28.7071 11.2929C28.8946 11.4804 29 11.7348 29 12V20C29 20.2652 28.8946 20.5196 28.7071 20.7071C28.5196 20.8946 28.2652 21 28 21C27.7348 21 27.4804 20.8946 27.2929 20.7071C27.1054 20.5196 27 20.2652 27 20V12C27 11.7348 27.1054 11.4804 27.2929 11.2929C27.4804 11.1054 27.7348 11 28 11Z" fill="#828282"/>
<path d="M12.9969 11.7423C12.9635 11.6701 12.9106 11.6091 12.8442 11.5664C12.7779 11.5237 12.701 11.501 12.6225 11.501C12.5439 11.501 12.467 11.5237 12.4007 11.5664C12.3344 11.6091 12.2814 11.6701 12.248 11.7423L8.93778 18.8818C8.91466 18.9318 8.90144 18.9858 8.89889 19.0409C8.89634 19.096 8.90451 19.1511 8.92293 19.203C8.96013 19.3078 9.03682 19.3933 9.13614 19.4407C9.23545 19.4881 9.34925 19.4935 9.45251 19.4557C9.55576 19.418 9.64001 19.3401 9.68672 19.2393L10.5484 17.381H14.6965L15.5582 19.2393C15.5813 19.2893 15.6139 19.3341 15.6541 19.3712C15.6943 19.4083 15.7413 19.437 15.7924 19.4557C15.8435 19.4744 15.8978 19.4827 15.9521 19.4801C16.0064 19.4776 16.0596 19.4641 16.1088 19.4407C16.158 19.4172 16.2021 19.3841 16.2387 19.3433C16.2753 19.3025 16.3036 19.2548 16.322 19.203C16.3404 19.1511 16.3486 19.096 16.346 19.0409C16.3435 18.9858 16.3303 18.9318 16.3071 18.8818L12.9969 11.7423ZM10.9379 16.541L12.6225 12.9077L14.307 16.541H10.9379ZM18.8291 14.0212C18.1691 14.0212 17.6535 14.2033 17.2966 14.5629C17.2219 14.642 17.1805 14.7476 17.1814 14.8571C17.1823 14.9666 17.2253 15.0715 17.3013 15.1493C17.3773 15.2271 17.4802 15.2717 17.5881 15.2736C17.6961 15.2754 17.8004 15.2344 17.879 15.1593C18.0755 14.9614 18.3962 14.8611 18.8291 14.8611C19.5134 14.8611 20.0704 15.3336 20.0704 15.9111V16.0801C19.7032 15.8307 19.2709 15.6987 18.8291 15.7011C17.6881 15.7011 16.7602 16.5489 16.7602 17.5909C16.7602 18.633 17.6881 19.4808 18.8291 19.4808C19.2711 19.4828 19.7035 19.3502 20.0704 19.1002C20.0756 19.2116 20.1241 19.3164 20.2053 19.3914C20.2866 19.4665 20.3939 19.5057 20.5036 19.5005C20.6133 19.4953 20.7165 19.446 20.7905 19.3636C20.8645 19.2811 20.9031 19.1722 20.898 19.0609V15.9111C20.898 14.869 19.9701 14.0212 18.8291 14.0212ZM18.8291 18.6409C18.1448 18.6409 17.5878 18.1684 17.5878 17.5909C17.5878 17.0135 18.1448 16.541 18.8291 16.541C19.5134 16.541 20.0704 17.0135 20.0704 17.5909C20.0704 18.1684 19.5134 18.6409 18.8291 18.6409Z" fill="#828282"/>
</svg>
