<svg viewBox="0 0 484 660" fill="none" xmlns="http://www.w3.org/2000/svg">
    <path d="M68.2721 655.54C33.8371 655.54 5.92209 627.779 5.92209 593.529C5.92209 559.279 33.8371 531.518 68.2721 531.518H125.334" stroke="#4F4F4F" stroke-width="8.04468" stroke-linecap="round" stroke-linejoin="round"/>
    <path d="M64.4662 613.124C53.0125 613.124 43.728 604.145 43.728 593.068C43.728 581.991 53.0125 573.013 64.4662 573.013H86.6055" stroke="#333333" stroke-width="8.04468" stroke-linecap="round" stroke-linejoin="round"/>
    <path d="M127.639 5.00022L37.1015 5C19.3723 5 5 19.0365 5 36.3513" stroke="#333333" stroke-width="8.04468" stroke-linecap="round" stroke-linejoin="round"/>
    <path d="M315.285 453.721C317.507 453.721 319.308 451.92 319.308 449.699C319.308 447.477 317.507 445.676 315.285 445.676V453.721ZM266.701 528.835C268.923 528.835 270.724 527.034 270.724 524.813C270.724 522.591 268.923 520.79 266.701 520.79V528.835ZM174.131 659.562C176.352 659.562 178.153 657.762 178.153 655.54C178.153 653.319 176.352 651.518 174.131 651.518V659.562ZM270.969 563.814C270.969 561.593 269.168 559.792 266.947 559.792C264.725 559.792 262.924 561.593 262.924 563.814H270.969ZM188.721 275.636C188.721 273.415 186.92 271.614 184.699 271.614C182.477 271.614 180.676 273.415 180.676 275.636H188.721ZM311.263 409.975C311.263 412.196 313.064 413.997 315.285 413.997C317.507 413.997 319.308 412.196 319.308 409.975H311.263ZM315.285 445.676H232.556V453.721H315.285V445.676ZM232.556 445.676C209.503 445.676 190.777 464.272 190.777 487.256H198.822C198.822 468.755 213.905 453.721 232.556 453.721V445.676ZM190.777 487.256C190.777 510.239 209.503 528.835 232.556 528.835V520.79C213.905 520.79 198.822 505.756 198.822 487.256H190.777ZM232.556 528.835H266.701V520.79H232.556V528.835ZM174.131 651.518H169.199V659.562H174.131V651.518ZM169.199 651.518C156.875 651.518 146.876 641.512 146.876 629.166H138.831C138.831 645.946 152.423 659.562 169.199 659.562V651.518ZM146.876 629.166C146.876 616.815 156.875 606.809 169.199 606.809V598.765C152.423 598.765 138.831 612.381 138.831 629.166H146.876ZM169.199 606.809H228.02V598.765H169.199V606.809ZM228.02 606.809C251.744 606.809 270.969 587.557 270.969 563.814H262.924C262.924 583.122 247.293 598.765 228.02 598.765V606.809ZM180.676 275.636V305.275H188.721V275.636H180.676ZM180.676 305.275C180.676 343.594 211.706 374.665 249.992 374.665V366.621C216.157 366.621 188.721 339.16 188.721 305.275H180.676ZM249.992 374.665H275.998V366.621H249.992V374.665ZM275.998 374.665C295.47 374.665 311.263 390.47 311.263 409.975H319.308C319.308 386.035 299.921 366.621 275.998 366.621V374.665Z" fill="#828282"/>
    <path fill-rule="evenodd" clip-rule="evenodd" d="M326.812 582.233C341.58 582.233 353.552 570.364 353.552 555.723C353.552 541.082 341.58 529.213 326.812 529.213C312.043 529.213 300.071 541.082 300.071 555.723C300.071 570.364 312.043 582.233 326.812 582.233Z" stroke="#4F4F4F" stroke-width="8.04468" stroke-linecap="round" stroke-linejoin="round"/>
    <path fill-rule="evenodd" clip-rule="evenodd" d="M89.8329 152.076C105.875 152.076 118.879 139.071 118.879 123.029C118.879 106.988 105.875 93.9835 89.8329 93.9835C73.7912 93.9835 60.7868 106.988 60.7868 123.029C60.7868 139.071 73.7912 152.076 89.8329 152.076Z" stroke="#333333" stroke-width="8.04468" stroke-linecap="round" stroke-linejoin="round"/>
    <path d="M90.0634 186.193C125.839 186.193 154.841 157.604 154.841 122.338C154.841 87.0716 125.839 58.4827 90.0634 58.4827C54.2882 58.4827 25.2861 87.0716 25.2861 122.338" stroke="#4F4F4F" stroke-width="8.04468" stroke-linecap="round" stroke-linejoin="round"/>
    <path d="M227.147 567.814C229.368 567.814 231.169 566.013 231.169 563.791C231.169 561.57 229.368 559.769 227.147 559.769V567.814ZM170.198 447.442C171.286 445.505 170.597 443.053 168.66 441.966C166.723 440.878 164.271 441.566 163.184 443.503L170.198 447.442ZM275.635 411.98C277.857 411.98 279.658 410.179 279.658 407.957C279.658 405.736 277.857 403.935 275.635 403.935V411.98ZM183.424 419.213C181.671 420.578 181.357 423.106 182.723 424.858C184.088 426.611 186.615 426.925 188.368 425.559L183.424 419.213ZM227.147 559.769C190.536 559.769 160.246 527.143 160.246 486.11H152.201C152.201 530.882 185.419 567.814 227.147 567.814V559.769ZM160.246 486.11C160.246 471.906 163.896 458.666 170.198 447.442L163.184 443.503C156.209 455.925 152.201 470.521 152.201 486.11H160.246ZM275.635 403.935H227.319V411.98H275.635V403.935ZM227.319 403.935C210.906 403.935 195.74 409.618 183.424 419.213L188.368 425.559C199.363 416.994 212.81 411.98 227.319 411.98V403.935Z" fill="#828282"/>
    <path d="M156.454 195.414C141.813 195.414 129.944 207.283 129.944 221.924C129.944 236.566 141.813 248.435 156.454 248.435C171.096 248.435 182.965 236.566 182.965 221.924V195.414" stroke="#333333" stroke-width="8.04468" stroke-linecap="round" stroke-linejoin="round"/>
    <path d="M37.9649 404.076C21.0321 404.076 7.30524 390.496 7.30524 373.743C7.30524 356.991 21.0321 343.411 37.9649 343.411C54.8979 343.411 68.6246 356.991 68.6246 373.743V466.51" stroke="#333333" stroke-width="8.04468" stroke-linecap="round" stroke-linejoin="round"/>
    <path d="M426.822 628.799C426.822 614.031 438.699 602.059 453.351 602.059C468.002 602.059 479.88 614.031 479.88 628.799C479.88 643.568 468.002 655.54 453.351 655.54H411.183" stroke="#333333" stroke-width="8.04468" stroke-linecap="round" stroke-linejoin="round"/>
    <path d="M33.8155 266.742C19.1743 266.742 7.30524 278.434 7.30524 292.858C7.30524 307.282 19.1743 318.975 33.8155 318.975C48.4567 318.975 60.3258 307.282 60.3258 292.858V186.193" stroke="#828282" stroke-width="8.04468" stroke-linecap="round" stroke-linejoin="round"/>
    <path fill-rule="evenodd" clip-rule="evenodd" d="M127.869 406.113C112.719 406.113 100.437 393.852 100.437 378.727V300.717C100.437 285.592 112.719 273.331 127.869 273.331V273.331C143.02 273.331 155.302 285.592 155.302 300.717V378.727C155.302 393.852 143.02 406.113 127.869 406.113V406.113Z" stroke="#4F4F4F" stroke-width="8.04468" stroke-linecap="round" stroke-linejoin="round"/>
    <path d="M38.0802 443.458H35.8622C20.0907 443.458 7.30524 456.256 7.30524 472.043V472.043C7.30524 487.83 20.0906 500.628 35.8622 500.628H101.848C117.62 500.628 130.405 487.83 130.405 472.043V472.043C130.405 456.256 117.62 443.458 101.848 443.458H99.6301" stroke="#4F4F4F" stroke-width="8.04468" stroke-linecap="round" stroke-linejoin="round"/>
    <path d="M234.141 489.563H329.947C366.41 489.563 395.969 519.287 395.969 555.954C395.969 592.618 366.41 622.345 329.947 622.345H301.126" stroke="#333333" stroke-width="8.04468" stroke-linecap="round" stroke-linejoin="round"/>
    <path d="M105.508 655.54V613.53C105.508 589.342 124.4 569.08 149.769 563.792" stroke="#333333" stroke-width="8.04468" stroke-linecap="round" stroke-linejoin="round"/>
    <path d="M25.5167 154.842C25.5167 159.136 25.5167 213.186 25.5167 239.675" stroke="#333333" stroke-width="8.04468" stroke-linecap="round" stroke-linejoin="round"/>
    <path d="M206.017 655.31C215.703 655.31 320.997 655.31 380.754 655.31" stroke="#333333" stroke-width="8.04468" stroke-linecap="round" stroke-linejoin="round"/>
    <path d="M435.85 540.278C435.85 541.725 435.85 559.936 435.85 568.863" stroke="#333333" stroke-width="8.04468" stroke-linecap="round" stroke-linejoin="round"/>
</svg>